<?xml version="1.0" encoding="utf-8"?>
<!-- Generator: Adobe Illustrator 16.0.0, SVG Export Plug-In . SVG Version: 6.00 Build 0)  -->
<!DOCTYPE svg PUBLIC "-//W3C//DTD SVG 1.1//EN" "http://www.w3.org/Graphics/SVG/1.1/DTD/svg11.dtd">
<svg version="1.1" id="Capa_1" xmlns="http://www.w3.org/2000/svg" xmlns:xlink="http://www.w3.org/1999/xlink" x="0px" y="0px"
	 width="30px" height="100px" viewBox="0 0 30 100" enable-background="new 0 0 30 100" xml:space="preserve">
<g>
	<g>
		<path fill="#7AC8D0" d="M15,18.5c1.654,0,3,1.346,3,3s-1.346,3-3,3c-1.654,0-3-1.346-3-3S13.346,18.5,15,18.5 M15,16.5
			c-2.764,0-5,2.238-5,5s2.236,5,5,5c2.763,0,5-2.238,5-5S17.764,16.5,15,16.5z"/>
	</g>
	<g>
		<g>
			<path fill="#7AC8D0" d="M15,29.5c2.021,0,3.3,0.771,3.783,1.445C18.1,31.205,16.814,31.5,15,31.5
				c-1.984,0-3.206-0.305-3.818-0.543C11.641,30.242,12.959,29.5,15,29.5 M15,27.5c-3.75,0-6,2-6,4c0,1,2.25,2,6,2c3.517,0,6-1,6-2
				C21,29.5,18.646,27.5,15,27.5z"/>
		</g>
	</g>
	<ellipse fill="#7AC8D0" cx="14.584" cy="30.695" rx="4.416" ry="2.305"/>
	<ellipse fill="#7AC8D0" cx="14.888" cy="21.621" rx="3.682" ry="3.379"/>
</g>
<g>
	<g>
		<path fill="#BD4E40" d="M15,68.5c1.654,0,3,1.346,3,3s-1.346,3-3,3c-1.654,0-3-1.346-3-3S13.346,68.5,15,68.5 M15,66.5
			c-2.764,0-5,2.238-5,5s2.236,5,5,5c2.763,0,5-2.238,5-5S17.764,66.5,15,66.5z"/>
	</g>
	<g>
		<g>
			<path fill="#BD4E40" d="M15,79.5c2.021,0,3.3,0.771,3.783,1.445C18.1,81.205,16.814,81.5,15,81.5
				c-1.984,0-3.206-0.305-3.818-0.543C11.641,80.242,12.959,79.5,15,79.5 M15,77.5c-3.75,0-6,2-6,4c0,1,2.25,2,6,2c3.517,0,6-1,6-2
				C21,79.5,18.646,77.5,15,77.5z"/>
		</g>
	</g>
	<ellipse fill="#BD4E40" cx="14.584" cy="80.695" rx="4.416" ry="2.305"/>
	<ellipse fill="#BD4E40" cx="14.888" cy="71.621" rx="3.682" ry="3.379"/>
</g>
</svg>
