<?xml version="1.0" encoding="utf-8"?>
<!-- Generator: Adobe Illustrator 16.0.0, SVG Export Plug-In . SVG Version: 6.00 Build 0)  -->
<!DOCTYPE svg PUBLIC "-//W3C//DTD SVG 1.1//EN" "http://www.w3.org/Graphics/SVG/1.1/DTD/svg11.dtd">
<svg version="1.1" id="Capa_1" xmlns="http://www.w3.org/2000/svg" xmlns:xlink="http://www.w3.org/1999/xlink" x="0px" y="0px"
	 width="40px" height="40px" viewBox="0 0 40 40" enable-background="new 0 0 40 40" xml:space="preserve">
<g opacity="0.8">
	<g>
		<defs>
			<rect id="SVGID_1_" x="7.5" y="7.568" width="25" height="24.863"/>
		</defs>
		<clipPath id="SVGID_2_">
			<use xlink:href="#SVGID_1_"  overflow="visible"/>
		</clipPath>
		<path clip-path="url(#SVGID_2_)" fill="#F49813" d="M21.231,12.166c-0.095-0.073-0.203-0.124-0.329-0.153
			c-0.124-0.029-0.258-0.043-0.399-0.043s-0.277,0.014-0.403,0.043c-0.128,0.029-0.237,0.08-0.333,0.153
			c-0.093,0.073-0.167,0.169-0.221,0.287c-0.055,0.119-0.082,0.269-0.082,0.448c0,0.175,0.027,0.323,0.082,0.443
			c0.054,0.121,0.128,0.219,0.221,0.292c0.096,0.072,0.205,0.125,0.333,0.156c0.126,0.031,0.262,0.047,0.403,0.047
			s0.275-0.016,0.399-0.047c0.126-0.031,0.234-0.084,0.329-0.156c0.093-0.073,0.169-0.171,0.225-0.292
			c0.056-0.12,0.084-0.268,0.084-0.443c0-0.179-0.028-0.329-0.084-0.448C21.4,12.334,21.324,12.239,21.231,12.166"/>
		<rect x="19.546" y="14.708" clip-path="url(#SVGID_2_)" fill="#F49813" width="1.908" height="6.989"/>
		<path clip-path="url(#SVGID_2_)" fill="#F49813" d="M20.499,7.568c-5.157,0-9.354,4.197-9.354,9.355
			c0,5.157,4.196,9.354,9.354,9.354s9.354-4.197,9.354-9.354C29.853,11.766,25.656,7.568,20.499,7.568 M20.499,24.926
			c-4.413,0-8.002-3.589-8.002-8.003s3.589-8.004,8.002-8.004s8.003,3.59,8.003,8.004S24.912,24.926,20.499,24.926"/>
		<path clip-path="url(#SVGID_2_)" fill-rule="evenodd" clip-rule="evenodd" fill="#F49813" d="M8.787,26.111
			c0,0.885,2.521,2.373,7.028,2.926l0.009-1.682l3.856,2.709l-3.886,2.367l0.015-1.723c-4.304-0.514-8.309-1.813-8.309-4.598
			c0-0.931,1.235-1.872,3.189-2.344l0.019,0.69C9.469,24.998,8.787,25.605,8.787,26.111 M21.595,30.947l-0.011-1.91
			c6.338-0.037,9.643-1.721,9.643-2.965c0-0.416-0.471-0.907-1.344-1.374l-0.015-0.702c1.497,0.493,2.633,1.174,2.633,2.076
			C32.501,28.793,27.703,30.914,21.595,30.947"/>
	</g>
</g>
</svg>
