<?xml version="1.0" encoding="utf-8"?>
<!-- Generator: Adobe Illustrator 16.0.0, SVG Export Plug-In . SVG Version: 6.00 Build 0)  -->
<!DOCTYPE svg PUBLIC "-//W3C//DTD SVG 1.1//EN" "http://www.w3.org/Graphics/SVG/1.1/DTD/svg11.dtd">
<svg version="1.1" id="Capa_1" xmlns="http://www.w3.org/2000/svg" xmlns:xlink="http://www.w3.org/1999/xlink" x="0px" y="0px"
	 width="30px" height="150px" viewBox="0 0 30 150" enable-background="new 0 0 30 150" xml:space="preserve">
<g>
	<g>
		<path fill="#7AC8D0" d="M14.888,18.5c1.654,0,3,1.346,3,3s-1.346,3-3,3c-1.654,0-3-1.346-3-3S13.234,18.5,14.888,18.5
			 M14.888,16.5c-2.764,0-5,2.238-5,5s2.236,5,5,5c2.763,0,5-2.238,5-5S17.651,16.5,14.888,16.5z"/>
	</g>
	<g>
		<g>
			<path fill="#7AC8D0" d="M14.888,29.5c2.021,0,3.3,0.771,3.783,1.445c-0.684,0.26-1.969,0.555-3.783,0.555
				c-1.984,0-3.206-0.305-3.818-0.543C11.529,30.242,12.847,29.5,14.888,29.5 M14.888,27.5c-3.75,0-6,2-6,4c0,1,2.25,2,6,2
				c3.517,0,6-1,6-2C20.888,29.5,18.534,27.5,14.888,27.5z"/>
		</g>
	</g>
</g>
<g>
	<g>
		<path fill="#7AC8D0" d="M15,68.371c1.654,0,3,1.346,3,3s-1.346,3-3,3c-1.654,0-3-1.346-3-3S13.346,68.371,15,68.371 M15,66.371
			c-2.764,0-5,2.238-5,5s2.236,5,5,5c2.763,0,5-2.239,5-5S17.764,66.371,15,66.371z"/>
	</g>
	<g>
		<g>
			<path fill="#7AC8D0" d="M15,79.371c2.021,0,3.3,0.771,3.783,1.445c-0.684,0.26-1.969,0.555-3.783,0.555
				c-1.984,0-3.206-0.305-3.818-0.543C11.641,80.113,12.959,79.371,15,79.371 M15,77.371c-3.75,0-6,2-6,4c0,1,2.25,2,6,2
				c3.517,0,6-1,6-2C21,79.371,18.646,77.371,15,77.371z"/>
		</g>
	</g>
	<ellipse fill="#7AC8D0" cx="14.584" cy="80.566" rx="4.416" ry="2.305"/>
	<ellipse fill="#7AC8D0" cx="14.888" cy="71.492" rx="3.682" ry="3.379"/>
</g>
<g>
	<g>
		<path fill="#BD4E3F" d="M15,118.371c1.654,0,3,1.346,3,3s-1.346,3-3,3c-1.654,0-3-1.346-3-3S13.346,118.371,15,118.371
			 M15,116.371c-2.764,0-5,2.238-5,5s2.236,5,5,5c2.763,0,5-2.238,5-5S17.764,116.371,15,116.371z"/>
	</g>
	<g>
		<g>
			<path fill="#BD4E3F" d="M15,129.371c2.021,0,3.3,0.771,3.783,1.445c-0.684,0.26-1.969,0.555-3.783,0.555
				c-1.984,0-3.206-0.305-3.818-0.543C11.641,130.113,12.959,129.371,15,129.371 M15,127.371c-3.75,0-6,2-6,4c0,1,2.25,2,6,2
				c3.517,0,6-1,6-2C21,129.371,18.646,127.371,15,127.371z"/>
		</g>
	</g>
	<ellipse fill="#BD4E3F" cx="14.584" cy="130.566" rx="4.416" ry="2.305"/>
	<ellipse fill="#BD4E3F" cx="14.888" cy="121.492" rx="3.682" ry="3.379"/>
</g>
</svg>
