<?xml version="1.0" encoding="utf-8"?>
<!-- Generator: Adobe Illustrator 16.0.0, SVG Export Plug-In . SVG Version: 6.00 Build 0)  -->
<!DOCTYPE svg PUBLIC "-//W3C//DTD SVG 1.1//EN" "http://www.w3.org/Graphics/SVG/1.1/DTD/svg11.dtd">
<svg version="1.1" id="Capa_1" xmlns="http://www.w3.org/2000/svg" xmlns:xlink="http://www.w3.org/1999/xlink" x="0px" y="0px"
	 width="30px" height="30px" viewBox="0 0 30 30" enable-background="new 0 0 30 30" xml:space="preserve">
<path fill="#FFFFFF" d="M25.829,24.063l-5.603-6.127c1.136-1.561,1.732-3.395,1.732-5.329c0-5.021-4.085-9.107-9.106-9.107
	s-9.106,4.086-9.106,9.107c0,5.021,4.085,9.107,9.106,9.107c1.914,0,3.793-0.615,5.343-1.741l5.581,6.104
	c0.271,0.273,0.634,0.424,1.019,0.424c0.383,0,0.743-0.148,1.015-0.418c0.271-0.271,0.423-0.633,0.424-1.017
	S26.085,24.32,25.829,24.063 M19.083,12.606c0,3.437-2.795,6.231-6.23,6.231s-6.231-2.795-6.231-6.231
	c0-3.436,2.796-6.231,6.231-6.231S19.083,9.17,19.083,12.606"/>
</svg>
